<?xml version="1.0" standalone="no"?>
<!DOCTYPE svg PUBLIC "-//W3C//DTD SVG 20010904//EN"
 "http://www.w3.org/TR/2001/REC-SVG-20010904/DTD/svg10.dtd">
<svg version="1.0" xmlns="http://www.w3.org/2000/svg"
 width="124.000000pt" height="124.000000pt" viewBox="0 0 124.000000 124.000000"
 preserveAspectRatio="xMidYMid meet">
<metadata>
Created by potrace 1.11, written by Peter Selinger 2001-2013
</metadata>
<g transform="translate(0.000000,124.000000) scale(0.100000,-0.100000)"
fill="#000000" stroke="none">
<path d="M0 620 l0 -620 620 0 620 0 0 620 0 620 -620 0 -620 0 0 -620z m813
464 c86 -44 101 -77 107 -242 3 -86 1 -131 -5 -129 -6 2 -12 60 -15 134 -5
122 -7 132 -32 165 -45 59 -76 68 -243 68 -159 0 -178 -5 -228 -58 -36 -38
-46 -83 -47 -204 0 -53 -4 -100 -10 -103 -13 -8 -13 165 0 234 12 67 39 103
92 130 38 19 61 21 196 21 121 0 160 -3 185 -16z m-557 -136 c-5 -27 -1 -37
26 -65 17 -18 29 -35 26 -38 -3 -3 -19 10 -35 29 -24 26 -36 33 -56 29 -13 -3
-28 0 -31 6 -4 6 0 11 8 11 18 0 21 16 6 25 -19 12 -11 26 9 15 26 -13 31 -13
31 5 0 8 5 15 11 15 8 0 9 -11 5 -32z m308 -9 c20 -15 26 -29 26 -57 0 -43 -7
-55 -37 -71 -32 -16 -57 -14 -87 10 -42 33 -32 109 17 129 35 14 52 12 81 -11z
m240 10 c50 -23 57 -103 13 -134 -32 -22 -74 -18 -102 10 -40 39 -31 96 20
123 26 15 38 15 69 1z m216 -14 c0 -18 12 -19 28 -3 9 9 12 9 12 0 0 -7 -4
-12 -10 -12 -5 0 -10 -4 -10 -10 0 -5 7 -10 16 -10 8 0 12 -5 8 -11 -3 -6 -16
-8 -27 -5 -15 4 -32 -4 -57 -27 l-35 -32 33 36 c27 29 32 41 26 63 -4 16 -2
26 5 26 6 0 11 -7 11 -15z m-608 -155 c18 -11 29 -20 25 -20 -11 0 -67 29 -67
35 0 9 9 5 42 -15z m468 -73 c72 -36 83 -63 88 -242 l5 -152 -69 -6 c-38 -4
-80 -7 -94 -7 l-25 0 8 113 c9 134 1 173 -48 216 -78 68 -178 65 -247 -8 -21
-22 -40 -52 -44 -68 -4 -15 -2 -77 5 -137 6 -60 10 -111 7 -113 -2 -3 -41 -1
-85 3 l-81 7 0 149 c0 157 8 196 48 231 47 42 86 48 292 42 173 -5 200 -9 240
-28z m157 -438 c5 -27 -13 -39 -73 -49 -134 -23 -124 -24 -124 4 0 15 -8 30
-19 36 -26 13 -346 13 -372 0 -11 -6 -19 -21 -19 -36 0 -24 -3 -26 -32 -20
-18 3 -53 8 -78 12 -58 9 -80 20 -80 43 0 10 2 20 4 22 2 2 181 4 398 3 331 0
393 -3 395 -15z m-222 -64 l0 -40 -180 0 -180 0 -3 28 c-7 58 -8 58 185 55
l178 -3 0 -40z"/>
<path d="M476 922 c-3 -6 -1 -14 5 -17 15 -10 25 3 12 16 -7 7 -13 7 -17 1z"/>
<path d="M516 923 c-11 -11 -6 -23 9 -23 8 0 15 4 15 9 0 13 -16 22 -24 14z"/>
<path d="M466 872 c-7 -11 26 -52 42 -52 15 0 46 40 37 48 -4 4 -10 1 -12 -5
-7 -18 -34 -16 -48 4 -8 11 -14 12 -19 5z"/>
<path d="M740 910 c0 -5 5 -10 10 -10 6 0 10 5 10 10 0 6 -4 10 -10 10 -5 0
-10 -4 -10 -10z"/>
<path d="M780 910 c0 -5 5 -10 10 -10 6 0 10 5 10 10 0 6 -4 10 -10 10 -5 0
-10 -4 -10 -10z"/>
<path d="M730 863 c0 -19 25 -43 44 -43 11 0 36 33 36 48 -1 16 -2 16 -14 0
-7 -10 -19 -18 -26 -18 -7 0 -19 8 -26 18 -12 16 -13 15 -14 -5z"/>
<path d="M362 693 c-7 -3 -19 -18 -27 -33 -39 -75 62 -140 114 -74 27 35 26
59 -4 89 -23 23 -53 30 -83 18z m73 -33 c24 -27 13 -68 -22 -76 -34 -9 -57 6
-61 42 -6 49 49 72 83 34z"/>
<path d="M832 693 c-7 -3 -19 -18 -27 -33 -38 -73 57 -137 113 -77 29 30 28
62 -3 92 -23 23 -53 30 -83 18z m70 -30 c35 -31 12 -83 -37 -83 -28 0 -56 35
-48 59 14 40 55 52 85 24z"/>
</g>
</svg>
